<svg width="619" height="120" viewBox="0 0 619 120" fill="none" xmlns="http://www.w3.org/2000/svg">
<path d="M46.133 119.386C37.0125 119.386 28.979 117.53 22.0325 113.818C15.1391 110.106 9.73036 104.883 5.8064 98.149C1.93547 91.4146 0 83.5137 0 74.4461V0.235619L19.4077 0.0765381V73.9689C19.4077 78.2641 20.1235 82.1085 21.5553 85.5022C23.04 88.8959 25.0285 91.7858 27.5207 94.172C30.013 96.5051 32.8764 98.2815 36.111 99.5012C39.3456 100.721 42.6863 101.331 46.133 101.331C49.6858 101.331 53.053 100.721 56.2346 99.5012C59.4692 98.2285 62.3326 96.4256 64.8249 94.0925C67.3171 91.7063 69.2791 88.8163 70.7108 85.4226C72.1425 82.0289 72.8584 78.211 72.8584 73.9689V0.0765381H92.2661V74.4461C92.2661 83.5137 90.3041 91.4146 86.3801 98.149C82.5092 104.883 77.1005 110.106 70.154 113.818C63.2606 117.53 55.2536 119.386 46.133 119.386Z" fill="#1F1F28"/>
<path d="M108.131 117V0.0765381H127.3V117H108.131Z" fill="#1F1F28"/>
<path d="M197.555 117C191.881 118.06 186.313 118.511 180.851 118.352C175.443 118.246 170.591 117.265 166.295 115.409C162 113.5 158.739 110.504 156.512 106.421C154.55 102.709 153.516 98.9179 153.41 95.0469C153.304 91.176 153.251 86.8013 153.251 81.9229V0.235619H172.34V80.8093C172.34 84.256 172.367 87.2785 172.42 89.8768C172.526 92.4751 173.083 94.5962 174.09 96.24C175.999 99.4216 179.048 101.198 183.237 101.569C187.427 101.94 192.199 101.728 197.555 100.933V117ZM137.661 46.13V31.097H197.555V46.13H137.661Z" fill="#1F1F28"/>
<path d="M211.277 117V31.097H230.446V74.0485V117H211.277Z" fill="#1F1F28"/>
<path d="M349.481 117V64.8218C349.481 58.9359 348.023 54.3491 345.106 51.0615C342.19 47.7208 338.239 46.0505 333.255 46.0505C330.179 46.0505 327.422 46.7663 324.983 48.1981C322.544 49.5767 320.608 51.6448 319.176 54.4021C317.745 57.1065 317.029 60.3411 317.029 64.106L308.518 59.095C308.465 53.156 309.791 47.9329 312.495 43.4257C315.252 38.8654 318.964 35.3126 323.631 32.7673C328.297 30.2221 333.494 28.9494 339.22 28.9494C348.712 28.9494 355.977 31.8129 361.014 37.5397C366.105 43.2136 368.65 50.6903 368.65 59.9699V117H349.481ZM246.159 117V31.097H263.101V57.7428H265.487V117H246.159ZM297.939 117V65.0605C297.939 59.0685 296.481 54.4021 293.565 51.0615C290.648 47.7208 286.671 46.0505 281.634 46.0505C276.755 46.0505 272.831 47.7208 269.862 51.0615C266.945 54.4021 265.487 58.7503 265.487 64.106L256.897 58.3791C256.897 52.8114 258.275 47.8004 261.033 43.3461C263.79 38.8919 267.502 35.3922 272.168 32.8469C276.888 30.2486 282.164 28.9494 287.997 28.9494C294.413 28.9494 299.769 30.3281 304.064 33.0855C308.412 35.7899 311.647 39.5017 313.768 44.2211C315.942 48.8874 317.029 54.1635 317.029 60.0495V117H297.939Z" fill="#1F1F28"/>
<path d="M405.463 119.386C399.259 119.386 394.01 118.219 389.714 115.886C385.419 113.5 382.158 110.345 379.931 106.421C377.757 102.497 376.67 98.1755 376.67 93.4561C376.67 89.3201 377.359 85.6082 378.738 82.3206C380.117 78.9799 382.238 76.1165 385.101 73.7303C387.965 71.2911 391.676 69.3026 396.237 67.7648C399.683 66.6513 403.713 65.6438 408.327 64.7423C412.993 63.8409 418.031 63.019 423.439 62.2766C428.901 61.4812 434.601 60.6328 440.54 59.7313L433.7 63.6287C433.753 57.6898 432.427 53.3151 429.723 50.5047C427.019 47.6943 422.458 46.2891 416.042 46.2891C412.171 46.2891 408.433 47.1905 404.827 48.9934C401.221 50.7963 398.702 53.8984 397.271 58.2996L379.772 52.8114C381.893 45.5467 385.923 39.7138 391.862 35.3126C397.854 30.9114 405.914 28.7108 416.042 28.7108C423.678 28.7108 430.386 29.9569 436.166 32.4492C441.999 34.9414 446.32 39.0245 449.131 44.6983C450.668 47.7208 451.596 50.8229 451.914 54.0044C452.233 57.133 452.392 60.5532 452.392 64.2651V117H435.609V98.3876L438.393 101.41C434.522 107.614 429.988 112.174 424.791 115.091C419.648 117.954 413.205 119.386 405.463 119.386ZM409.281 104.114C413.629 104.114 417.341 103.346 420.417 101.808C423.492 100.27 425.931 98.3876 427.734 96.1605C429.59 93.9334 430.836 91.8388 431.473 89.8768C432.48 87.4376 433.037 84.6537 433.143 81.5252C433.302 78.3436 433.382 75.7718 433.382 73.8098L439.268 75.5597C433.488 76.4612 428.53 77.2566 424.394 77.9459C420.258 78.6352 416.705 79.2981 413.735 79.9344C410.766 80.5177 408.141 81.1805 405.861 81.9229C403.634 82.7183 401.751 83.6462 400.214 84.7068C398.676 85.7673 397.483 86.9869 396.634 88.3656C395.839 89.7443 395.441 91.3616 395.441 93.2175C395.441 95.3386 395.972 97.221 397.032 98.8648C398.093 100.456 399.63 101.728 401.645 102.683C403.713 103.637 406.259 104.114 409.281 104.114Z" fill="#1F1F28"/>
<path d="M515.494 117C509.82 118.06 504.252 118.511 498.791 118.352C493.382 118.246 488.53 117.265 484.235 115.409C479.94 113.5 476.679 110.504 474.452 106.421C472.49 102.709 471.456 98.9179 471.349 95.0469C471.243 91.176 471.19 86.8013 471.19 81.9229V0.0765381H490.28V80.8093C490.28 84.256 490.306 87.2785 490.359 89.8768C490.466 92.4751 491.022 94.5962 492.03 96.24C493.939 99.4216 496.988 101.198 501.177 101.569C505.366 101.94 510.138 101.728 515.494 100.933V117ZM455.601 46.13V31.097H515.494V46.13H455.601Z" fill="#1F1F28"/>
<path d="M560.716 119.386C552.02 119.386 544.384 117.504 537.809 113.739C531.233 109.974 526.09 104.751 522.378 98.0694C518.719 91.3881 516.89 83.6993 516.89 75.0029C516.89 65.6172 518.693 57.4777 522.298 50.5842C525.904 43.6378 530.915 38.2556 537.331 34.4377C543.748 30.6198 551.171 28.7108 559.602 28.7108C568.511 28.7108 576.067 30.8054 582.271 34.9945C588.528 39.1305 593.168 44.9899 596.191 52.5727C599.213 60.1555 600.353 69.0905 599.611 79.3776H580.601V72.3781C580.548 63.0455 578.904 56.2316 575.669 51.9364C572.435 47.6413 567.344 45.4937 560.398 45.4937C552.55 45.4937 546.717 47.9329 542.899 52.8114C539.081 57.6368 537.172 64.7158 537.172 74.0484C537.172 82.7448 539.081 89.4791 542.899 94.2515C546.717 99.0239 552.285 101.41 559.602 101.41C564.322 101.41 568.378 100.376 571.772 98.3081C575.219 96.187 577.87 93.138 579.726 89.161L598.656 94.8878C595.369 102.63 590.278 108.648 583.385 112.943C576.544 117.239 568.988 119.386 560.716 119.386ZM531.127 79.3776V64.9014H590.225V79.3776H531.127Z" fill="#1F1F28"/>
<circle cx="220.879" cy="9.3254" r="9.3254" fill="#1F1F28"/>
<circle cx="608.85" cy="109.38" r="9.3254" fill="#1F1F28"/>
</svg>
