<svg width="129" height="26" viewBox="0 0 129 26" fill="none" xmlns="http://www.w3.org/2000/svg">
<path d="M9.62698 25.5C7.72372 25.5 6.04729 25.1113 4.59771 24.334C3.1592 23.5568 2.03052 22.463 1.21167 21.0528C0.403891 19.6426 0 17.9881 0 16.0893V0.549303L4.04997 0.515991V15.9894C4.04997 16.8888 4.19936 17.6939 4.49813 18.4045C4.80796 19.1152 5.22292 19.7203 5.74299 20.22C6.26307 20.7086 6.86061 21.0806 7.5356 21.336C8.2106 21.5914 8.90773 21.719 9.62698 21.719C10.3684 21.719 11.071 21.5914 11.735 21.336C12.41 21.0695 13.0075 20.6919 13.5276 20.2034C14.0476 19.7037 14.4571 19.0985 14.7558 18.3879C15.0546 17.6772 15.204 16.8777 15.204 15.9894V0.515991H19.254V16.0893C19.254 17.9881 18.8445 19.6426 18.0257 21.0528C17.2179 22.463 16.0892 23.5568 14.6397 24.334C13.2011 25.1113 11.5302 25.5 9.62698 25.5Z" fill="white"/>
<path d="M22.5645 25.0003V0.515991H26.5647V25.0003H22.5645Z" fill="white"/>
<path d="M41.2254 25.0003C40.0414 25.2224 38.8796 25.3167 37.7398 25.2834C36.6111 25.2612 35.5986 25.0558 34.7023 24.6672C33.806 24.2674 33.1255 23.64 32.6608 22.785C32.2513 22.0078 32.0355 21.2138 32.0134 20.4032C31.9913 19.5926 31.9802 18.6766 31.9802 17.655V0.549303H35.9638V17.4218C35.9638 18.1436 35.9693 18.7765 35.9804 19.3206C36.0025 19.8647 36.1187 20.3088 36.329 20.6531C36.7273 21.3193 37.3636 21.6913 38.2378 21.769C39.1119 21.8467 40.1078 21.8023 41.2254 21.6358V25.0003ZM28.727 10.1598V7.01182H41.2254V10.1598H28.727Z" fill="white"/>
<path d="M44.089 25.0003V7.01182H48.0892V16.0061V25.0003H44.089Z" fill="white"/>
<path d="M72.9293 25.0003V14.074C72.9293 12.8414 72.625 11.8809 72.0164 11.1925C71.4078 10.4929 70.5834 10.1431 69.5432 10.1431C68.9014 10.1431 68.326 10.2931 67.817 10.5929C67.308 10.8816 66.9041 11.3146 66.6053 11.892C66.3066 12.4583 66.1572 13.1357 66.1572 13.9241L64.3812 12.8747C64.3701 11.6311 64.6467 10.5373 65.2111 9.5935C65.7865 8.63856 66.5611 7.89459 67.5348 7.3616C68.5086 6.82861 69.593 6.56211 70.7881 6.56211C72.7688 6.56211 74.2848 7.16173 75.336 8.36095C76.3983 9.54908 76.9294 11.1147 76.9294 13.0579V25.0003H72.9293ZM51.3681 25.0003V7.01182H54.9036V12.5916H55.4015V25.0003H51.3681ZM62.1736 25.0003V14.1239C62.1736 12.8692 61.8693 11.892 61.2607 11.1925C60.6521 10.4929 59.8222 10.1431 58.771 10.1431C57.7529 10.1431 56.9341 10.4929 56.3144 11.1925C55.7058 11.892 55.4015 12.8025 55.4015 13.9241L53.6089 12.7248C53.6089 11.5589 53.8966 10.5096 54.472 9.57684C55.0474 8.64411 55.822 7.91125 56.7958 7.37825C57.7806 6.83416 58.8816 6.56211 60.0988 6.56211C61.4377 6.56211 62.5554 6.85081 63.4517 7.42822C64.359 7.99452 65.034 8.7718 65.4767 9.76006C65.9303 10.7372 66.1572 11.8421 66.1572 13.0746V25.0003H62.1736Z" fill="white"/>
<path d="M84.6116 25.5C83.3169 25.5 82.2214 25.2557 81.3251 24.7671C80.4288 24.2674 79.7483 23.6067 79.2835 22.785C78.8299 21.9633 78.603 21.0584 78.603 20.0701C78.603 19.204 78.7469 18.4267 79.0346 17.7383C79.3223 17.0387 79.7649 16.4391 80.3624 15.9394C80.96 15.4286 81.7345 15.0122 82.6862 14.6902C83.4054 14.457 84.2464 14.2461 85.2091 14.0573C86.1829 13.8685 87.2341 13.6964 88.3628 13.541C89.5025 13.3744 90.6921 13.1967 91.9314 13.008L90.504 13.8241C90.515 12.5805 90.2384 11.6644 89.674 11.0759C89.1097 10.4874 88.1581 10.1931 86.8191 10.1931C86.0114 10.1931 85.2312 10.3819 84.4788 10.7594C83.7263 11.137 83.2007 11.7865 82.902 12.7082L79.2503 11.5589C79.693 10.0377 80.5339 8.81622 81.7733 7.89459C83.0237 6.97296 84.7056 6.51214 86.8191 6.51214C88.4126 6.51214 89.8124 6.77309 91.0185 7.29497C92.2357 7.81686 93.1375 8.67187 93.724 9.85999C94.0449 10.4929 94.2386 11.1425 94.3049 11.8087C94.3713 12.4639 94.4045 13.1801 94.4045 13.9574V25.0003H90.9023V21.1028L91.4833 21.7357C90.6755 23.0349 89.7294 23.9898 88.6449 24.6005C87.5716 25.2001 86.2271 25.5 84.6116 25.5ZM85.4083 22.302C86.3157 22.302 87.0902 22.141 87.732 21.819C88.3738 21.497 88.8829 21.1028 89.2591 20.6364C89.6464 20.17 89.9064 19.7314 90.0392 19.3206C90.2494 18.8098 90.3656 18.2268 90.3878 17.5717C90.421 16.9055 90.4376 16.3669 90.4376 15.9561L91.6658 16.3225C90.4597 16.5113 89.4251 16.6778 88.562 16.8222C87.6989 16.9665 86.9575 17.1053 86.3378 17.2386C85.7181 17.3607 85.1704 17.4995 84.6946 17.655C84.2298 17.8216 83.837 18.0159 83.5161 18.238C83.1952 18.46 82.9462 18.7154 82.7692 19.0041C82.6032 19.2928 82.5202 19.6315 82.5202 20.0201C82.5202 20.4643 82.6309 20.8585 82.8522 21.2027C83.0735 21.5358 83.3944 21.8023 83.8149 22.0022C84.2464 22.2021 84.7776 22.302 85.4083 22.302Z" fill="white"/>
<path d="M107.573 25.0003C106.389 25.2224 105.227 25.3167 104.087 25.2834C102.958 25.2612 101.946 25.0558 101.05 24.6672C100.153 24.2674 99.4727 23.64 99.008 22.785C98.5985 22.0078 98.3828 21.2138 98.3606 20.4032C98.3385 19.5926 98.3274 18.6766 98.3274 17.655V0.515991H102.311V17.4218C102.311 18.1436 102.317 18.7765 102.328 19.3206C102.35 19.8647 102.466 20.3088 102.676 20.6531C103.075 21.3193 103.711 21.6913 104.585 21.769C105.459 21.8467 106.455 21.8023 107.573 21.6358V25.0003ZM95.0742 10.1598V7.01182H107.573V10.1598H95.0742Z" fill="white"/>
<path d="M117.01 25.5C115.195 25.5 113.601 25.1058 112.229 24.3174C110.857 23.529 109.784 22.4353 109.009 21.0362C108.246 19.6371 107.864 18.027 107.864 16.2059C107.864 14.2405 108.24 12.5361 108.993 11.0925C109.745 9.63791 110.791 8.51086 112.13 7.71137C113.469 6.91189 115.018 6.51214 116.777 6.51214C118.636 6.51214 120.213 6.95075 121.508 7.82796C122.813 8.69407 123.782 9.92107 124.412 11.5089C125.043 13.0968 125.281 14.9678 125.126 17.122H121.159V15.6563C121.148 13.702 120.805 12.2751 120.13 11.3757C119.455 10.4763 118.393 10.0266 116.943 10.0266C115.305 10.0266 114.088 10.5373 113.292 11.5589C112.495 12.5694 112.096 14.0517 112.096 16.006C112.096 17.8271 112.495 19.2373 113.292 20.2367C114.088 21.236 115.25 21.7357 116.777 21.7357C117.762 21.7357 118.608 21.5192 119.317 21.0861C120.036 20.642 120.589 20.0035 120.977 19.1707L124.927 20.3699C124.241 21.9911 123.179 23.2514 121.74 24.1508C120.313 25.0502 118.736 25.5 117.01 25.5ZM110.835 17.122V14.0906H123.167V17.122H110.835Z" fill="white"/>
<ellipse cx="46.0925" cy="2.45278" rx="1.94601" ry="1.95278" fill="white"/>
<ellipse cx="127.054" cy="23.4048" rx="1.94602" ry="1.95278" fill="white"/>
</svg>
