<svg class="logo" width="296px" height="48px" viewBox="0 0 296 48" version="1.1" xmlns="http://www.w3.org/2000/svg" xmlns:xlink="http://www.w3.org/1999/xlink">
<path fill="#FFF" class="logo__type" d="M25.959,15.3837 L18.738,15.3837 L18.738,40.6277 C18.261,40.7467 17.535,40.8467 16.56,40.9257 C15.584,41.0057 14.66,41.0447 13.785,41.0447 C11.358,41.0447 9.657,40.3287 8.683,38.8967 C7.708,37.4647 7.221,35.0767 7.221,31.7357 L7.221,15.3837 L-2.84217094e-13,15.3837 L-2.84217094e-13,32.8687 C-2.84217094e-13,34.9787 0.218,36.9177 0.656,38.6877 C1.093,40.4587 1.819,41.9807 2.834,43.2527 C3.849,44.5267 5.201,45.5207 6.893,46.2367 C8.583,46.9527 10.682,47.3117 13.188,47.3117 C15.854,47.3117 18.3,47.1217 20.529,46.7447 C22.756,46.3657 24.566,45.9987 25.959,45.6397 L25.959,15.3837 Z M47.025,41.2237 C46.07,41.1047 45.284,40.9357 44.667,40.7167 C44.05,40.4987 43.563,40.1797 43.206,39.7617 C42.848,39.3437 42.599,38.8367 42.459,38.2397 C42.32,37.6437 42.251,36.9077 42.251,36.0317 L42.251,0.2847 L35.03,1.4787 L35.03,37.4047 C35.03,38.9567 35.198,40.3387 35.537,41.5517 C35.875,42.7657 36.462,43.7807 37.297,44.5957 C38.133,45.4117 39.257,46.0377 40.669,46.4757 C42.081,46.9127 43.862,47.1517 46.01,47.1917 L47.025,41.2237 Z M52.515,34.1817 C52.515,36.2517 52.694,38.0907 53.052,39.7017 C53.411,41.3137 54.027,42.6857 54.902,43.8197 C55.777,44.9537 56.961,45.8187 58.453,46.4157 C59.945,47.0127 61.805,47.3117 64.033,47.3117 C65.862,47.3117 67.454,47.1217 68.807,46.7447 C70.159,46.3657 71.254,45.9987 72.089,45.6397 L70.896,39.9107 C70.299,40.1497 69.494,40.4087 68.479,40.6867 C67.464,40.9657 66.301,41.1047 64.988,41.1047 C63.078,41.1047 61.725,40.5677 60.93,39.4937 C60.134,38.4187 59.736,36.6287 59.736,34.1227 L59.736,21.4107 L70.836,21.4107 L70.836,15.3837 L59.736,15.3837 L59.736,5.9547 L52.515,7.1477 L52.515,34.1817 Z M77.878,46.5947 L85.099,46.5947 L85.099,15.3837 L77.878,15.3837 L77.878,46.5947 Z M112.073,46.5947 L119.293,46.5947 L119.293,29.3477 C119.293,28.0747 119.234,26.8817 119.115,25.7677 C118.995,24.6547 118.776,23.5997 118.458,22.6047 C118.975,22.2467 119.751,21.8787 120.786,21.5007 C121.82,21.1227 122.913,20.9337 124.068,20.9337 C126.335,20.9337 127.867,21.6597 128.663,23.1117 C129.458,24.5647 129.856,26.9217 129.856,30.1837 L129.856,46.5947 L137.078,46.5947 L137.078,29.0497 C137.078,26.9417 136.908,25.0017 136.57,23.2317 C136.232,21.4617 135.615,19.9487 134.72,18.6957 C133.825,17.4427 132.591,16.4677 131.02,15.7717 C129.448,15.0757 127.449,14.7267 125.023,14.7267 C124.068,14.7267 123.122,14.8267 122.188,15.0257 C121.253,15.2247 120.368,15.4727 119.532,15.7717 C118.697,16.0697 117.94,16.3987 117.264,16.7567 C116.587,17.1137 116.031,17.4527 115.593,17.7707 C114.678,16.8557 113.535,16.1207 112.162,15.5627 C110.79,15.0057 109.029,14.7267 106.88,14.7267 C104.374,14.7267 101.996,14.9057 99.749,15.2647 C97.501,15.6227 95.681,16.0007 94.289,16.3987 L94.289,46.5947 L101.51,46.5947 L101.51,21.4107 C101.987,21.3317 102.703,21.2317 103.658,21.1127 C104.613,20.9927 105.487,20.9337 106.284,20.9337 C108.512,20.9337 110.033,21.6597 110.849,23.1117 C111.664,24.5647 112.073,26.9217 112.073,30.1837 L112.073,46.5947 Z M152.533,40.5377 C151.459,39.8817 150.922,38.6977 150.922,36.9867 C150.922,36.1127 151.121,35.3857 151.519,34.8087 C151.916,34.2327 152.444,33.7847 153.1,33.4667 C153.756,33.1477 154.493,32.9287 155.308,32.8097 C156.123,32.6907 156.929,32.6307 157.726,32.6307 C158.64,32.6307 159.476,32.6907 160.231,32.8097 C160.987,32.9287 161.564,33.0487 161.962,33.1677 L161.962,41.1647 C160.808,41.4037 159.117,41.5227 156.89,41.5227 C155.06,41.5227 153.607,41.1947 152.533,40.5377 L152.533,40.5377 Z M150.684,15.0857 C148.932,15.4047 147.6,15.7217 146.685,16.0397 L147.58,21.8887 C148.455,21.5707 149.589,21.2917 150.982,21.0527 C152.374,20.8137 153.906,20.6947 155.577,20.6947 C156.81,20.6947 157.834,20.8547 158.65,21.1727 C159.465,21.4907 160.122,21.9387 160.62,22.5147 C161.117,23.0917 161.464,23.7587 161.664,24.5137 C161.863,25.2707 161.962,26.0657 161.962,26.9017 L161.962,28.0947 C160.968,27.8557 160.032,27.6877 159.158,27.5877 C158.282,27.4887 157.446,27.4387 156.651,27.4387 C154.94,27.4387 153.299,27.6087 151.728,27.9457 C150.156,28.2837 148.774,28.8407 147.58,29.6167 C146.386,30.3927 145.441,31.3977 144.746,32.6307 C144.049,33.8637 143.701,35.3757 143.701,37.1657 C143.701,39.0367 144.009,40.6077 144.626,41.8807 C145.243,43.1547 146.097,44.1887 147.192,44.9837 C148.286,45.7797 149.609,46.3567 151.161,46.7147 C152.712,47.0717 154.422,47.2517 156.293,47.2517 C159.117,47.2517 161.654,47.0817 163.902,46.7447 C166.149,46.4067 167.83,46.1177 168.944,45.8787 L168.944,26.9607 C168.944,25.1317 168.736,23.4497 168.318,21.9187 C167.9,20.3867 167.204,19.0837 166.23,18.0087 C165.254,16.9357 163.951,16.0997 162.32,15.5027 C160.688,14.9057 158.68,14.6077 156.293,14.6077 C154.303,14.6077 152.434,14.7667 150.684,15.0857 L150.684,15.0857 Z M177.418,34.1817 C177.418,36.2517 177.598,38.0907 177.956,39.7017 C178.314,41.3137 178.93,42.6857 179.806,43.8197 C180.68,44.9537 181.865,45.8187 183.357,46.4157 C184.849,47.0127 186.708,47.3117 188.937,47.3117 C190.766,47.3117 192.358,47.1217 193.71,46.7447 C195.063,46.3657 196.157,45.9987 196.993,45.6397 L195.799,39.9107 C195.203,40.1497 194.397,40.4087 193.382,40.6867 C192.368,40.9657 191.204,41.1047 189.891,41.1047 C187.981,41.1047 186.629,40.5677 185.834,39.4937 C185.037,38.4187 184.64,36.6287 184.64,34.1227 L184.64,21.4107 L195.74,21.4107 L195.74,15.3837 L184.64,15.3837 L184.64,5.9547 L177.418,7.1477 L177.418,34.1817 Z M201.41,37.6137 C202.046,39.5827 203.021,41.2937 204.334,42.7457 C205.647,44.1987 207.318,45.3327 209.347,46.1477 C211.376,46.9627 213.763,47.3707 216.508,47.3707 C217.583,47.3707 218.636,47.3117 219.671,47.1917 C220.706,47.0717 221.67,46.9237 222.565,46.7447 C223.46,46.5657 224.256,46.3657 224.953,46.1477 C225.648,45.9287 226.196,45.7207 226.594,45.5207 L225.639,39.6127 C224.803,39.9707 223.659,40.3087 222.208,40.6277 C220.755,40.9457 219.154,41.1047 217.403,41.1047 C214.419,41.1047 212.142,40.4187 210.57,39.0457 C208.998,37.6727 208.113,35.7337 207.915,33.2267 L228.503,33.2267 C228.543,32.8297 228.573,32.3827 228.593,31.8837 C228.612,31.3867 228.623,30.9397 228.623,30.5417 C228.623,25.2507 227.419,21.2727 225.012,18.6067 C222.605,15.9417 219.253,14.6077 214.957,14.6077 C213.126,14.6077 211.336,14.9567 209.585,15.6527 C207.834,16.3487 206.283,17.3827 204.931,18.7557 C203.578,20.1277 202.493,21.8497 201.678,23.9177 C200.863,25.9867 200.455,28.3927 200.455,31.1387 C200.455,33.4867 200.773,35.6437 201.41,37.6137 L201.41,37.6137 Z M207.975,27.9157 C208.094,27.0017 208.312,26.1057 208.631,25.2307 C208.949,24.3557 209.396,23.5797 209.974,22.9027 C210.55,22.2267 211.257,21.6797 212.092,21.2617 C212.928,20.8437 213.902,20.6347 215.017,20.6347 C216.09,20.6347 217.016,20.8247 217.792,21.2017 C218.567,21.5807 219.224,22.0977 219.761,22.7537 C220.298,23.4107 220.706,24.1857 220.984,25.0817 C221.262,25.9767 221.402,26.9217 221.402,27.9157 L207.975,27.9157 Z M258.76,40.5377 C257.685,39.8817 257.148,38.6977 257.148,36.9867 C257.148,36.1127 257.347,35.3857 257.745,34.8087 C258.142,34.2327 258.67,33.7847 259.327,33.4667 C259.983,33.1477 260.718,32.9287 261.535,32.8097 C262.35,32.6907 263.155,32.6307 263.951,32.6307 C264.866,32.6307 265.702,32.6907 266.458,32.8097 C267.213,32.9287 267.791,33.0487 268.188,33.1677 L268.188,41.1647 C267.034,41.4037 265.344,41.5227 263.116,41.5227 C261.285,41.5227 259.834,41.1947 258.76,40.5377 L258.76,40.5377 Z M256.909,15.0857 C255.158,15.4047 253.826,15.7217 252.911,16.0397 L253.806,21.8887 C254.681,21.5707 255.814,21.2917 257.208,21.0527 C258.6,20.8137 260.132,20.6947 261.803,20.6947 C263.036,20.6947 264.061,20.8547 264.876,21.1727 C265.691,21.4907 266.348,21.9387 266.846,22.5147 C267.343,23.0917 267.691,23.7587 267.89,24.5137 C268.089,25.2707 268.188,26.0657 268.188,26.9017 L268.188,28.0947 C267.193,27.8557 266.258,27.6877 265.384,27.5877 C264.508,27.4887 263.673,27.4387 262.877,27.4387 C261.166,27.4387 259.525,27.6087 257.954,27.9457 C256.381,28.2837 255,28.8407 253.806,29.6167 C252.613,30.3927 251.667,31.3977 250.972,32.6307 C250.275,33.8637 249.927,35.3757 249.927,37.1657 C249.927,39.0367 250.235,40.6077 250.852,41.8807 C251.468,43.1547 252.324,44.1887 253.418,44.9837 C254.512,45.7797 255.835,46.3567 257.387,46.7147 C258.938,47.0717 260.648,47.2517 262.519,47.2517 C265.344,47.2517 267.88,47.0817 270.128,46.7447 C272.376,46.4067 274.057,46.1177 275.171,45.8787 L275.171,26.9607 C275.171,25.1317 274.962,23.4497 274.544,21.9187 C274.126,20.3867 273.43,19.0837 272.456,18.0087 C271.48,16.9357 270.177,16.0997 268.547,15.5027 C266.915,14.9057 264.906,14.6077 262.519,14.6077 C260.529,14.6077 258.66,14.7667 256.909,15.0857 L256.909,15.0857 Z M284.062,46.5947 L291.283,46.5947 L291.283,15.3837 L284.062,15.3837 L284.062,46.5947 Z"></path>
<path d="M86.9505,5.415 C86.9505,7.098 86.4065,8.421 85.3205,9.383 C84.2325,10.349 82.9505,10.83 81.4745,10.83 C79.9985,10.83 78.7155,10.349 77.6295,9.383 C76.5415,8.421 75.9995,7.098 75.9995,5.415 C75.9995,3.734 76.5415,2.411 77.6295,1.447 C78.7155,0.483 79.9985,-2.84217094e-14 81.4745,-2.84217094e-14 C82.9505,-2.84217094e-14 84.2325,0.483 85.3205,1.447 C86.4065,2.411 86.9505,3.734 86.9505,5.415" class="logo__dot logo__dot--automate" fill="#7252CF"></path>
<path d="M243.9515,41.415 C243.9515,43.098 243.4075,44.421 242.3215,45.383 C241.2335,46.349 239.9515,46.83 238.4755,46.83 C236.9995,46.83 235.7165,46.349 234.6295,45.383 C233.5425,44.421 232.9995,43.098 232.9995,41.415 C232.9995,39.734 233.5425,38.411 234.6295,37.447 C235.7165,36.483 236.9995,36 238.4755,36 C239.9515,36 241.2335,36.483 242.3215,37.447 C243.4075,38.411 243.9515,39.734 243.9515,41.415" class="logo__dot logo__dot--augment" fill="#5FE0C6"></path>
<path d="M292.9515,5.415 C292.9515,7.098 292.4075,8.421 291.3215,9.383 C290.2335,10.349 288.9515,10.83 287.4755,10.83 C285.9995,10.83 284.7165,10.349 283.6295,9.383 C282.5425,8.421 281.9995,7.098 281.9995,5.415 C281.9995,3.734 282.5425,2.411 283.6295,1.447 C284.7165,0.483 285.9995,-2.84217094e-14 287.4755,-2.84217094e-14 C288.9515,-2.84217094e-14 290.2335,0.483 291.3215,1.447 C292.4075,2.411 292.9515,3.734 292.9515,5.415" class="logo__dot logo__dot--analyse" fill="#F16A54"></path>
</svg>
